# xmcd CD database file generated by OrangeCD 5.2
#
# Track frame offsets:
#	182
#	13775
#	25967
#	38562
#	50517
#	68380
#	80215
#	94755
#	105612
#	118082
#	133482
#	145095
#	159137
#	173112
#
# Disc length: 2480 seconds
#
# Revision: 0
# Processed by: cddbd v1.5.1PL2 Copyright (c) Steve Scherf et al.
# Submitted via: OrangeCD 5.2
#
DISCID=b609ae0e
DTITLE=Kenny Rogers - Best Of
DYEAR=1900
DGENRE=Country
TTITLE0=Ruby don't take your love to town
TTITLE1=Elvira
TTITLE2=Rueben james
TTITLE3=Me and Bobby Mc Gee
TTITLE4=Something's burnin'
TTITLE5=A poem for my little lady
TTITLE6=Sunshine
TTITLE7=She even woke me up to say goodbye
TTITLE8=I just wanna give my love to you
TTITLE9=For the good times
TTITLE10=Just remember you're my sunshine
TTITLE11=Are my thoughts with you
TTITLE12=But you know I love you
TTITLE13=Sleep comes easy
EXTD=
EXTT0=
EXTT1=
EXTT2=
EXTT3=
EXTT4=
EXTT5=
EXTT6=
EXTT7=
EXTT8=
EXTT9=
EXTT10=
EXTT11=
EXTT12=
EXTT13=
PLAYORDER=
